<svg width="32" height="32" viewBox="0 0 32 32" fill="none" xmlns="http://www.w3.org/2000/svg">
<rect width="32" height="32" fill="#EE3643"/>
<path fill-rule="evenodd" clip-rule="evenodd" d="M6 5.99561C5 6 5 7 5 7V12C5 12.9626 6 12.9967 6 12.9967H8.81542C9.4353 12.9967 9.3283 13.434 9.3283 13.434C9.3283 13.434 8.53735 17.6996 8.45213 18.4212C8.3666 19.1435 7.85371 19.6029 7.85371 19.6029C7.85371 19.6029 6.55549 19.9966 6.27774 20.1497C5.99999 20.3029 5.99999 21.0001 5.99999 21.0001H17V20.6307C17 20.1497 14.4364 19.6029 13.6031 19.5153C12.7696 19.4281 12.9406 18.8589 12.9406 18.8589L13.2824 16.0001H14.2441L14.5977 14.0001H13.636L13.7421 13.0001H16.5C18.3597 12.803 20 11.8228 20 11.8228L20 7.5C18.5254 6.4282 15.8801 5.99561 15.8801 5.99561H6ZM24.6213 8.69997H28.6584C28.8426 8.69997 28.9922 8.99237 28.9922 9.4422C28.9922 9.89203 28.8426 10.3 28.6584 10.3H24.6213C24.4223 11.0498 23.9575 12 23.4161 12H21V6.99997H23.4161C23.9578 6.99997 24.4223 7.95014 24.6213 8.69997ZM6.59842 25.9999C6 25.9999 6 25.3274 6 25.3274V21.9998H17V25.3494C17 25.9395 16.359 25.9999 16.359 25.9999L6.59842 25.9999ZM16 7.50764V7.49238C16 7.22158 15.8592 7.00001 15.6872 7.00001H6.3128C6.14076 7.00001 6 7.22158 6 7.49238V7.50764C6 7.77844 6.14076 8.00001 6.3128 8.00001H15.6872C15.8592 8.00001 16 7.77844 16 7.50764Z" fill="white"/>
</svg>
